<?xml version="1.0" encoding="utf-8"?>
<!-- Generator: Adobe Illustrator 21.1.0, SVG Export Plug-In . SVG Version: 6.00 Build 0)  -->
<svg version="1.1" id="Layer_1" xmlns="http://www.w3.org/2000/svg" xmlns:xlink="http://www.w3.org/1999/xlink" x="0px" y="0px"
	 viewBox="0 0 16 11.3" style="enable-background:new 0 0 16 11.3;" xml:space="preserve">
<path d="M15.8,2.4c0,0-0.2-1.1-0.6-1.6c-0.6-0.6-1.3-0.6-1.6-0.7C11.4,0,8,0,8,0S3.8,0,2.6,0.2c-0.4,0.1-1.2,0-1.8,0.7
	C0.3,1.3,0.2,2.4,0.2,2.4S0,3.7,0,5v1.3c0,1.3,0.2,2.6,0.2,2.6s0.2,1.1,0.6,1.6c0.6,0.6,1.4,0.6,1.8,0.7C3.8,11.3,8,11.3,8,11.3
	s3.4,0,5.6-0.2c0.3,0,1,0,1.6-0.7c0.5-0.5,0.6-1.6,0.6-1.6S16,7.6,16,6.3V5C16,3.7,15.8,2.4,15.8,2.4z M6.4,7.8L6.4,7.8l0-4.5
	l4.3,2.3L6.4,7.8z"/>
</svg>
